<?xml version="1.0" encoding="UTF-8"?>
<svg id="Layer_2" data-name="Layer 2" xmlns="http://www.w3.org/2000/svg" xmlns:xlink="http://www.w3.org/1999/xlink" viewBox="0 0 84.95 84.93">
  <defs>
    <style>
      .cls-1 {
        fill: url(#_Безымянный_градиент_21);
      }

      .cls-1, .cls-2 {
        stroke-width: 0px;
      }

      .cls-2 {
        fill: url(#_Безымянный_градиент_21-2);
      }
    </style>
    <linearGradient id="_Безымянный_градиент_21" data-name="Безымянный градиент 21" x1="1.12" y1="15.83" x2="77.42" y2="64.35" gradientUnits="userSpaceOnUse">
      <stop offset="0" stop-color="#12ccff"/>
      <stop offset="1" stop-color="#6500c9"/>
    </linearGradient>
    <linearGradient id="_Безымянный_градиент_21-2" data-name="Безымянный градиент 21" x1=".93" y1="16.11" x2="77.24" y2="64.64" xlink:href="#_Безымянный_градиент_21"/>
  </defs>
  <g id="OBJECTS">
    <g>
      <path class="cls-1" d="m54.66,37.95c-.14-.04-.28-.07-.43-.1-1.29-5.02-5.86-8.74-11.28-8.74s-9.98,3.72-11.28,8.74c-.15.02-.29.06-.43.1-1.67.49-2.84,2.09-2.72,3.9l.34,5.26c.14,2.1,1.95,3.69,4.04,3.55l1.18-.08c.71-.05,1.24-.66,1.19-1.36l-.67-10.3c-.04-.6-.48-1.07-1.04-1.18,1.28-3.96,5-6.84,9.38-6.84s8.1,2.87,9.38,6.84c-.56.11-1,.58-1.04,1.18l-.67,10.3c-.05.71.49,1.32,1.19,1.36l1.18.08c2.1.14,3.91-1.45,4.04-3.55l.34-5.26c.12-1.81-1.05-3.41-2.72-3.9Z"/>
      <path class="cls-2" d="m63.84,35.19c-.25-.72.14-1.51.86-1.75.72-.25,1.51.14,1.75.86s-.14,1.51-.86,1.75c-.72.25-1.51-.14-1.75-.86Zm3.04,8.26c.72-.25,1.11-1.03.86-1.75-.25-.72-1.03-1.11-1.75-.86-.72.25-1.11,1.03-.86,1.75.25.72,1.03,1.11,1.75.86Zm-1.06,7.43c.72-.25,1.11-1.03.86-1.75s-1.03-1.11-1.75-.86c-.72.25-1.11,1.03-.86,1.75.25.72,1.03,1.11,1.75.86Zm-3.3,6.74c.72-.25,1.11-1.03.86-1.75-.25-.72-1.03-1.11-1.75-.86-.72.25-1.11,1.03-.86,1.75s1.03,1.11,1.75.86Zm-5.23,5.39c.72-.25,1.11-1.03.86-1.75-.25-.72-1.03-1.11-1.75-.86-.72.25-1.11,1.03-.86,1.75s1.03,1.11,1.75.86Zm-6.64,3.51c.72-.25,1.11-1.03.86-1.75s-1.03-1.11-1.75-.86c-.72.25-1.11,1.03-.86,1.75.25.72,1.03,1.11,1.75.86Zm-7.4,1.29c.72-.25,1.11-1.03.86-1.75s-1.03-1.11-1.75-.86-1.11,1.03-.86,1.75,1.03,1.11,1.75.86Zm-7.44-1.08c.71-.24,1.09-1.02.85-1.73-.24-.71-1.02-1.09-1.73-.85-.71.24-1.09,1.02-.85,1.73.24.71,1.02,1.09,1.73.85Zm-6.74-3.3c.71-.24,1.09-1.02.85-1.73-.24-.71-1.02-1.09-1.73-.85-.71.24-1.09,1.02-.85,1.73.24.71,1.02,1.09,1.73.85Zm-5.39-5.23c.71-.24,1.09-1.02.85-1.73-.24-.71-1.02-1.09-1.73-.85-.71.24-1.09,1.02-.85,1.73s1.02,1.09,1.73.85Zm-3.52-6.65c.7-.24,1.08-1.01.84-1.71-.24-.7-1.01-1.08-1.71-.84-.7.24-1.08,1.01-.84,1.71.24.7,1.01,1.08,1.71.84Zm-1.29-7.4c.7-.24,1.08-1.01.84-1.71-.24-.7-1.01-1.08-1.71-.84s-1.08,1.01-.84,1.71c.24.7,1.01,1.08,1.71.84Zm1.06-7.43c.7-.24,1.08-1.01.84-1.71-.24-.7-1.01-1.08-1.71-.84-.7.24-1.08,1.01-.84,1.71.24.7,1.01,1.08,1.71.84Zm8.53-12.13c.7-.24,1.08-1.01.84-1.71-.24-.7-1.01-1.08-1.71-.84-.7.24-1.08,1.01-.84,1.71.24.7,1.01,1.08,1.71.84Zm-5.29,5.25c.7-.24,1.08-1.01.84-1.71-.24-.7-1.01-1.08-1.71-.84s-1.08,1.01-.84,1.71c.24.7,1.01,1.08,1.71.84Zm11.93-8.76c.7-.24,1.08-1.01.84-1.71-.24-.7-1.01-1.08-1.71-.84-.7.24-1.08,1.01-.84,1.71.24.7,1.01,1.08,1.71.84Zm7.4-1.27c.71-.24,1.09-1.02.85-1.73-.24-.71-1.02-1.09-1.73-.85-.71.24-1.09,1.02-.85,1.73s1.02,1.09,1.73.85Zm7.43,1.06c.71-.24,1.09-1.02.85-1.73s-1.02-1.09-1.73-.85-1.09,1.02-.85,1.73,1.02,1.09,1.73.85Zm6.74,3.31c.71-.24,1.09-1.02.85-1.73s-1.02-1.09-1.73-.85c-.71.24-1.09,1.02-.85,1.73.24.71,1.02,1.09,1.73.85Zm5.4,5.24c.72-.25,1.11-1.03.86-1.75s-1.03-1.11-1.75-.86c-.72.25-1.11,1.03-.86,1.75s1.03,1.11,1.75.86Zm9.09,4.41c.57-.19.87-.81.67-1.37s-.81-.87-1.37-.67c-.57.19-.87.81-.67,1.37.19.57.81.87,1.37.67Zm1.52,7.36c.57-.19.87-.81.67-1.37-.19-.57-.81-.87-1.37-.67-.57.19-.87.81-.67,1.37.19.57.81.87,1.37.67Zm-.36,7.51c.57-.19.87-.81.67-1.37-.19-.57-.81-.87-1.37-.67-.57.19-.87.81-.67,1.37.19.57.81.87,1.37.67Zm-2.21,7.2c.57-.2.88-.82.68-1.39s-.82-.88-1.39-.68c-.57.2-.88.82-.68,1.39s.82.88,1.39.68Zm-3.94,6.4c.57-.19.87-.81.67-1.37-.19-.57-.81-.87-1.37-.67-.57.19-.87.81-.67,1.37.19.57.81.87,1.37.67Zm-5.4,5.23c.57-.19.87-.81.67-1.37-.19-.57-.81-.87-1.37-.67-.57.19-.87.81-.67,1.37.19.57.81.87,1.37.67Zm-6.53,3.72c.57-.19.87-.81.67-1.37-.19-.57-.81-.87-1.37-.67-.57.19-.87.81-.67,1.37.19.57.81.87,1.37.67Zm-7.25,1.98c.57-.19.87-.81.67-1.37-.19-.57-.81-.87-1.37-.67-.57.19-.87.81-.67,1.37.19.57.81.87,1.37.67Zm-7.52.12c.57-.19.87-.81.67-1.37-.19-.57-.81-.87-1.37-.67-.57.19-.87.81-.67,1.37.19.57.81.87,1.37.67Zm-7.31-1.76c.57-.19.87-.81.67-1.37-.19-.57-.81-.87-1.37-.67s-.87.81-.67,1.37c.19.57.81.87,1.37.67Zm-6.65-3.54c.56-.19.85-.8.66-1.35-.19-.56-.8-.85-1.35-.66-.56.19-.85.8-.66,1.35.19.56.8.85,1.35.66Zm-5.56-5.06c.56-.19.85-.8.66-1.35-.19-.56-.8-.85-1.35-.66-.56.19-.85.8-.66,1.35.19.56.8.85,1.35.66Zm-4.13-6.29c.56-.19.85-.8.66-1.35-.19-.56-.8-.85-1.35-.66-.56.19-.85.8-.66,1.35.19.56.8.85,1.35.66Zm-2.43-7.12c.56-.19.85-.8.66-1.35-.19-.56-.8-.85-1.35-.66-.56.19-.85.8-.66,1.35.19.56.8.85,1.35.66Zm-.59-7.5c.56-.19.85-.8.66-1.35-.19-.56-.8-.85-1.35-.66-.56.19-.85.8-.66,1.35.19.56.8.85,1.35.66Zm1.29-7.42c.55-.19.84-.78.65-1.33-.19-.55-.78-.84-1.33-.65s-.84.78-.65,1.33.78.84,1.33.65Zm3.1-6.85c.55-.19.84-.78.65-1.33s-.78-.84-1.33-.65c-.55.19-.84.78-.65,1.33s.78.84,1.33.65Zm4.71-5.85c.56-.19.85-.8.66-1.35-.19-.56-.8-.85-1.35-.66-.56.19-.85.8-.66,1.35.19.56.8.85,1.35.66Zm6.01-4.51c.56-.19.85-.8.66-1.35-.19-.56-.8-.85-1.35-.66-.56.19-.85.8-.66,1.35s.8.85,1.35.66Zm6.95-2.88c.56-.19.85-.8.66-1.35-.19-.56-.8-.85-1.35-.66s-.85.8-.66,1.35c.19.56.8.85,1.35.66Zm7.45-1.06c.56-.19.85-.8.66-1.35s-.8-.85-1.35-.66c-.56.19-.85.8-.66,1.35.19.56.8.85,1.35.66Zm7.47.83c.56-.19.85-.8.66-1.35-.19-.56-.8-.85-1.35-.66-.56.19-.85.8-.66,1.35.19.56.8.85,1.35.66Zm7.04,2.68c.57-.19.87-.81.67-1.37-.19-.57-.81-.87-1.37-.67-.57.19-.87.81-.67,1.37.19.57.81.87,1.37.67Zm6.15,4.33c.57-.19.87-.81.67-1.37-.19-.57-.81-.87-1.37-.67s-.87.81-.67,1.37c.19.57.81.87,1.37.67Zm4.88,5.72c.57-.19.87-.81.67-1.37-.19-.57-.81-.87-1.37-.67-.57.19-.87.81-.67,1.37s.81.87,1.37.67Zm8.89,4.54c.42-.14.64-.6.5-1.01-.14-.42-.6-.64-1.01-.5s-.64.6-.5,1.01.6.64,1.01.5Zm1.68,7.34c.42-.14.64-.6.5-1.01s-.6-.64-1.01-.5c-.42.14-.64.6-.5,1.01.14.42.6.64,1.01.5Zm.12,7.53c.42-.14.64-.6.5-1.01-.14-.42-.6-.64-1.01-.5s-.64.6-.5,1.01c.14.42.6.64,1.01.5Zm-1.45,7.38c.42-.14.64-.6.5-1.01-.14-.42-.6-.64-1.01-.5-.42.14-.64.6-.5,1.01.14.42.6.64,1.01.5Zm-2.95,6.92c.42-.14.64-.6.5-1.01-.14-.42-.6-.64-1.01-.5-.42.14-.64.6-.5,1.01.14.42.6.64,1.01.5Zm-4.33,6.16c.42-.14.64-.6.5-1.01s-.6-.64-1.01-.5c-.42.14-.64.6-.5,1.01.14.42.6.64,1.01.5Zm-5.51,5.12c.42-.14.64-.6.5-1.01s-.6-.64-1.01-.5c-.42.14-.64.6-.5,1.01.14.42.6.64,1.01.5Zm-6.46,3.86c.42-.14.64-.6.5-1.01s-.6-.64-1.01-.5c-.42.14-.64.6-.5,1.01.14.42.6.64,1.01.5Zm-7.12,2.44c.42-.14.64-.6.5-1.01-.14-.42-.6-.64-1.01-.5-.42.14-.64.6-.5,1.01.14.42.6.64,1.01.5Zm-7.47.9c.42-.14.64-.6.5-1.01-.14-.42-.6-.64-1.01-.5-.42.14-.64.6-.5,1.01.14.42.6.64,1.01.5Zm-7.5-.67c.42-.14.64-.6.5-1.01-.14-.42-.6-.64-1.01-.5-.42.14-.64.6-.5,1.01.14.42.6.64,1.01.5Zm-7.2-2.23c.41-.14.63-.58.49-.99-.14-.41-.58-.63-.99-.49-.41.14-.63.58-.49.99s.58.63.99.49Zm-6.58-3.66c.41-.14.63-.58.49-.99s-.58-.63-.99-.49c-.41.14-.63.58-.49.99s.58.63.99.49Zm-5.67-4.95c.41-.14.63-.58.49-.99s-.58-.63-.99-.49-.63.58-.49.99.58.63.99.49Zm-4.52-6.02c.41-.14.63-.58.49-.99-.14-.41-.58-.63-.99-.49s-.63.58-.49.99.58.63.99.49Zm-3.17-6.83c.41-.14.63-.58.49-.99s-.58-.63-.99-.49c-.41.14-.63.58-.49.99.14.41.58.63.99.49Zm-1.68-7.34c.41-.14.63-.58.49-.99s-.58-.63-.99-.49-.63.58-.49.99c.14.41.58.63.99.49Zm-.12-7.54c.4-.14.61-.57.48-.97-.14-.4-.57-.61-.97-.48-.4.14-.61.57-.48.97.14.4.57.61.97.48Zm1.45-7.38c.4-.14.61-.57.48-.97-.14-.4-.57-.61-.97-.48-.4.14-.61.57-.48.97.14.4.57.61.97.48Zm2.96-6.91c.41-.14.63-.58.49-.99-.14-.41-.58-.63-.99-.49s-.63.58-.49.99.58.63.99.49Zm4.32-6.17c.4-.14.61-.57.48-.97-.14-.4-.57-.61-.97-.48s-.61.57-.48.97c.14.4.57.61.97.48Zm5.52-5.11c.41-.14.63-.58.49-.99s-.58-.63-.99-.49c-.41.14-.63.58-.49.99.14.41.58.63.99.49Zm6.46-3.86c.41-.14.63-.58.49-.99s-.58-.63-.99-.49-.63.58-.49.99c.14.41.58.63.99.49Zm7.12-2.44c.41-.14.63-.58.49-.99-.14-.41-.58-.63-.99-.49s-.63.58-.49.99c.14.41.58.63.99.49Zm7.47-.9c.41-.14.63-.58.49-.99-.14-.41-.58-.63-.99-.49-.41.14-.63.58-.49.99s.58.63.99.49Zm7.5.67c.41-.14.63-.58.49-.99-.14-.41-.58-.63-.99-.49-.41.14-.63.58-.49.99.14.41.58.63.99.49Zm7.19,2.21c.41-.14.63-.58.49-.99s-.58-.63-.99-.49c-.41.14-.63.58-.49.99.14.41.58.63.99.49Zm6.58,3.68c.42-.14.64-.6.5-1.01-.14-.42-.6-.64-1.01-.5-.42.14-.64.6-.5,1.01.14.42.6.64,1.01.5Zm5.67,4.95c.42-.14.64-.6.5-1.01-.14-.42-.6-.64-1.01-.5-.42.14-.64.6-.5,1.01.14.42.6.64,1.01.5Zm4.52,6.02c.42-.14.64-.6.5-1.01s-.6-.64-1.01-.5c-.42.14-.64.6-.5,1.01s.6.64,1.01.5Zm8.76,4.63c.28-.1.43-.4.33-.68s-.4-.43-.68-.33-.43.4-.33.68.4.43.68.33Zm1.79,7.31c.28-.1.43-.4.33-.68s-.4-.43-.68-.33-.43.4-.33.68.4.43.68.33Zm.45,7.52c.28-.1.43-.4.33-.68-.1-.28-.4-.43-.68-.33-.28.1-.43.4-.33.68.1.28.4.43.68.33Zm-.9,7.48c.28-.1.43-.4.33-.68-.1-.28-.4-.43-.68-.33s-.43.4-.33.68.4.43.68.33Zm-2.22,7.2c.28-.1.43-.4.33-.68-.1-.28-.4-.43-.68-.33-.28.1-.43.4-.33.68.1.28.4.43.68.33Zm-3.46,6.69c.28-.1.43-.4.33-.68-.1-.28-.4-.43-.68-.33-.28.1-.43.4-.33.68s.4.43.68.33Zm-4.6,5.96c.28-.1.43-.4.33-.68-.1-.28-.4-.43-.68-.33s-.43.4-.33.68.4.43.68.33Zm-5.59,5.04c.28-.1.43-.4.33-.68-.1-.28-.4-.43-.68-.33s-.43.4-.33.68.4.43.68.33Zm-6.4,3.96c.28-.1.43-.4.33-.68s-.4-.43-.68-.33c-.28.1-.43.4-.33.68s.4.43.68.33Zm-7.01,2.75c.28-.1.43-.4.33-.68-.1-.28-.4-.43-.68-.33-.28.1-.43.4-.33.68.1.28.4.43.68.33Zm-7.39,1.46c.28-.1.43-.4.33-.68-.1-.28-.4-.43-.68-.33-.28.1-.43.4-.33.68.1.28.4.43.68.33Zm-7.53.12c.28-.1.43-.4.33-.68-.1-.28-.4-.43-.68-.33-.28.1-.43.4-.33.68.1.28.4.43.68.33Zm-7.43-1.25c.27-.09.41-.39.32-.65-.09-.27-.39-.41-.65-.32-.27.09-.41.39-.32.65.09.27.39.41.65.32Zm-7.09-2.54c.27-.09.41-.39.32-.65-.09-.27-.39-.41-.65-.32s-.41.39-.32.65c.09.27.39.41.65.32Zm-6.52-3.76c.27-.09.41-.39.32-.65s-.39-.41-.65-.32-.41.39-.32.65c.09.27.39.41.65.32Zm-5.75-4.87c.27-.09.41-.39.32-.65-.09-.27-.39-.41-.66-.32-.27.09-.41.39-.32.65.09.27.39.41.65.32Zm-4.79-5.81c.27-.09.41-.39.32-.65s-.39-.41-.65-.32c-.27.09-.41.39-.32.66s.39.41.65.32Zm-3.67-6.57c.27-.09.41-.39.32-.65s-.39-.41-.65-.32-.41.39-.32.65.39.41.65.32Zm-2.44-7.12c.27-.09.41-.39.32-.66s-.39-.41-.65-.32c-.27.09-.41.39-.32.65.09.27.39.41.65.32Zm-1.13-7.45c.27-.09.41-.39.32-.65-.09-.27-.39-.41-.65-.32s-.41.39-.32.65c.09.27.39.41.65.32Zm.22-7.54c.26-.09.4-.37.31-.63-.09-.26-.37-.4-.63-.31-.26.09-.4.37-.31.63.09.26.37.4.63.31Zm1.56-7.37c.26-.09.4-.37.31-.63-.09-.26-.37-.4-.63-.31s-.4.37-.31.63c.09.26.37.4.63.31Zm2.85-6.97c.26-.09.4-.37.31-.63-.09-.26-.37-.4-.63-.31-.26.09-.4.37-.31.63.09.26.37.4.63.31Zm4.05-6.35c.26-.09.4-.37.31-.63-.09-.26-.37-.4-.63-.31-.26.09-.4.37-.31.63s.37.4.63.31Zm5.12-5.52c.26-.09.4-.37.31-.63-.09-.26-.37-.4-.63-.31-.26.09-.4.37-.31.63.09.26.37.4.63.31Zm6.03-4.5c.27-.09.41-.39.32-.65-.09-.27-.39-.41-.65-.32s-.41.39-.32.65c.09.27.39.41.65.32Zm6.73-3.37c.27-.09.41-.39.32-.65s-.39-.41-.65-.32-.41.39-.32.66.39.41.65.32Zm7.23-2.12c.27-.09.41-.39.32-.65-.09-.27-.39-.41-.65-.32s-.41.39-.32.65c.09.27.39.41.65.32Zm7.49-.79c.27-.09.41-.39.32-.65-.09-.27-.39-.41-.65-.32s-.41.39-.32.65c.09.27.39.41.65.32Zm7.51.56c.27-.09.41-.39.32-.65-.09-.27-.39-.41-.65-.32-.27.09-.41.39-.32.65.09.27.39.41.65.32Zm7.29,1.89c.27-.09.41-.39.32-.65s-.39-.41-.65-.32-.41.39-.32.65c.09.27.39.41.65.32Zm6.83,3.16c.27-.09.41-.39.32-.65s-.39-.41-.65-.32-.41.39-.32.65.39.41.65.32Zm6.16,4.35c.28-.1.43-.4.33-.68-.1-.28-.4-.43-.68-.33-.28.1-.43.4-.33.68.1.28.4.43.68.33Zm5.29,5.36c.28-.1.43-.4.33-.68s-.4-.43-.68-.33-.43.4-.33.68c.1.28.4.43.68.33Zm4.24,6.22c.28-.1.43-.4.33-.68s-.4-.43-.68-.33-.43.4-.33.68.4.43.68.33Z"/>
    </g>
  </g>
</svg>